<?xml version="1.0" encoding="utf-8"?>
<!-- Generator: Adobe Illustrator 24.3.0, SVG Export Plug-In . SVG Version: 6.00 Build 0)  -->
<svg version="1.1" id="Layer_1" xmlns="http://www.w3.org/2000/svg" xmlns:xlink="http://www.w3.org/1999/xlink" x="0px" y="0px"
	 viewBox="0 0 864 690" style="enable-background:new 0 0 864 690;" xml:space="preserve">
<style type="text/css">
	.st0{fill:#FFFFFF;}
</style>
<path class="st0" d="M454.7,638.5c-4.2,5.8-8.6,11.4-12.4,17.4c-8.8,14-20.9,19.7-37.2,16.3c-8-3-14-8.3-18.7-15.5
	c-4.1-6.4-8.8-12.4-13.2-18.5c-0.9-2.3-2.5-4-4.1-5.8c-5.1-7.4-10-14.9-15.2-22.2c-14.1-20-28.3-39.9-42.4-59.9
	c-6.1-9.2-12.3-18.3-19.2-27c-2.7-4.9-6.2-9.4-9.6-13.9c-0.8-1.3-1.6-2.5-2.4-3.7c-18-26.1-35.9-52.2-53.9-78.4
	c-5.7-9.1-11.5-18.1-17.2-27.2c-2.3-4.8-5-9.3-8-13.7c-7.1-13.4-13.9-27-19.9-41c-5.4-15.5-9.6-31.3-11.7-47.7
	c-1.4-11.7-1.6-23.5-1.8-35.2c0.2-9.5,0.7-18.9,1.8-28.3c2-18.4,6.6-36.2,12.3-53.7c5.3-13.6,11.3-26.8,18.3-39.6
	c2.9-4.8,5.9-9.5,8.8-14.3c7.3-9.4,14.6-18.7,21.9-28.1c6.4-6.4,12.7-12.7,19.1-19.1c9.4-7.3,18.8-14.6,28.1-21.9
	c4.3-2.7,8.6-5.3,12.9-8c13.3-7.1,27-13.5,41-19c13.5-4,27.1-8,41-10.4c40.3-6.3,79.9-3.8,118.6,9.3c1.4,0.5,2.9,0.7,4.3,1.1
	c14,5.6,27.7,11.8,41,19c4.3,2.7,8.6,5.3,12.9,8c9.6,7,19,14.2,28.2,21.8c6.4,6.4,12.7,12.7,19.1,19.1c6.9,8.7,13.8,17.4,20.7,26.1
	c3.1,5,6.2,9.9,9.3,14.9c7.3,13.2,13.6,26.9,19.1,41c8.9,26.6,14.2,53.8,14,82c-0.3,9.4-0.7,18.7-1,28.1c-0.5,4.2-0.9,8.4-1.4,12.6
	c-2.2,13.4-5.6,26.5-10.1,39.2c-1,0.8-0.7,2-0.9,3c-6,14-12.8,27.6-19.9,41c-3,5-5.9,10-8.9,15c-5.4,8.6-10.9,17.3-16.3,25.9
	c-4.6,6.7-9.1,13.5-13.7,20.2c-14.1,20.6-28.3,41.1-42.4,61.7c-3.3,4.7-6.6,9.4-9.8,14c-6.8,8.7-13,17.8-19.1,27
	c-7.2,9.7-14.3,19.5-20.8,29.7c-3.1,3.5-5.7,7.3-8.1,11.3c-9.3,13.3-18.6,26.5-27.9,39.8C458.1,633.6,456.4,636,454.7,638.5z
	 M414.8,587.3c8.6-12.3,17.3-24.6,25.9-36.9c5.2-7.3,10.3-14.6,15.5-21.9c4.5-6.2,9.7-11.9,12.8-19.1c2.4-3,5-5.8,7.2-8.9
	c11-15.6,22.1-31.1,32.8-46.8c5.9-8.6,12.6-16.7,17.3-26.2c4.7-4.6,8.1-10,10.9-15.9c6.2-8,11.5-16.6,16.8-25.2
	c9.4-12.8,17.3-26.5,24.4-40.7c7.6-13.3,13.4-27.2,16.5-42.2c3.3-13.5,4.2-27.2,3.8-41c0.3-7-0.3-13.9-1.2-20.8
	c-0.9-6.8-1-13.8-4.3-20.2c-2.5-13.8-6.9-26.9-13.8-39.1c-0.1-0.6-0.3-1.2-0.4-1.8c-7.3-15.1-16.6-28.9-28.2-41
	c-3.9-5.1-8.4-9.6-13.6-13.4c-10-10.2-21.9-17.9-34.2-24.8c-15-8.4-30.8-14.9-47.8-18c-13.4-3.5-27.1-5-41-4.6
	c-13.9-0.5-27.6,1.1-41.1,4.6c-31.3,6.7-58.6,21.2-82.1,42.9c-5.1,3.7-9.5,8.2-13.2,13.2c-11.5,11.5-20.2,25.1-27.7,39.3
	c-6.9,13.1-12.4,26.8-15.1,41.4c-4,13.9-5.5,28-5.2,42.4c-0.4,14.2,0.3,28.3,4,42.1c3,13.8,8.2,26.7,15.2,38.9c0.3,0.7,0.6,1.3,1,2
	c6.9,14.3,15.3,27.8,24.2,40.9c5.2,9,11.1,17.6,17.1,26c3.5,5.5,6.8,11,10.9,16c4,5.9,7.9,11.8,12,17.7
	c14.8,21.1,29.7,42.2,44.6,63.4c4.5,6.9,9.1,13.7,14.3,20.1c4.4,7.2,9.3,14,14.4,20.7c8.4,12,16.7,24,25.1,36
	C412.9,587,413.2,588.9,414.8,587.3z"/>
<path class="st0" d="M393.8,304.5c5.6-6.1,13.3-8.9,20.2-13c14.6-6.8,28.8-14.4,41.2-24.9c13.8-11.7,18-23.9,8.8-45.1
	c-1.5-5-4.3-9.2-7.9-13c-11.1-13-25.3-18.1-42.1-16.8c-18.5,1.3-32.3,10.1-41.1,26.4c-1.3,1.1-1.8,2.7-2.2,4.3
	c-0.8,1.6-1.6,3.3-2.3,4.9c-4.5,10.9-10.7,15.1-22.5,15.1c-4.6,0-9.3,0.1-13.9,0.2c-17-0.9-23.9-6.7-25.2-21.1
	c0.4-2.1,0.7-4.2,1.2-6.3c2.7-12,8.1-22.9,14.1-33.5c3.3-4.4,6.6-8.8,9.9-13.2c3.2-3.1,6.4-6.3,9.6-9.3c8.5-8.1,18.6-13.8,28.7-19.5
	c1.1,0.1,2-0.4,2.7-1.1c13.2-5.1,26.8-8.2,41-9c14,0,27.6,2,41,5.9c4.3,1.8,8.6,3.5,12.9,5.3c10.1,5.6,19.6,12,28,19.9
	c5.9,6.3,11.3,12.9,16.2,20c7.7,12.8,13,26.5,16.3,41.1c1.9,13.1,2.2,26.3,0.1,39.4c-4,16.1-11.8,30.1-22.8,42.5
	c-3.3,3.2-6.7,6.4-10,9.6c-13.1,10.4-27.2,19.4-41.8,27.4c-2,1.5-5.9,1-5.7,5c-1.8,13.4-9.3,20-23,20.1c-3.8,0-7.6,0.1-11.4,0.2
	c-1.3-0.1-2.6-0.2-4-0.2c-14.3-0.1-21.2-5.9-23.5-20c0.1-4.8,0.4-9.6,0.2-14.4C386.3,321.4,387.7,312.4,393.8,304.5z"/>
<path class="st0" d="M414,385.9c4,0.5,8,1.1,12,1.6c8.2,3.4,15.6,7.9,21,15.2c3.7,5,5.4,10.8,7.9,16.3c0.1,2.8,0.2,5.6,0.3,8.4
	c-0.4,3.3-0.8,6.7-1.1,10c-5.2,15.3-15.5,25.4-31,30c-3,0.3-6,0.7-9,1c-2.3-0.3-4.7-0.5-7-0.8c-17.1-4-27.9-14.5-33.1-31.2
	c-0.3-3-0.7-6-1-9c0.1-2.8,0.3-5.6,0.4-8.4c4.5-15.2,13.9-25.9,28.7-31.6C406,386.9,410,386.4,414,385.9z"/>
</svg>
